<?xml version="1.0" encoding="UTF-8"?>
<svg width="568px" height="360px" viewBox="0 0 568 360" version="1.1" xmlns="http://www.w3.org/2000/svg" xmlns:xlink="http://www.w3.org/1999/xlink">
    <title>3B68B589-6D4F-437C-8E61-433822244678</title>
    <defs>
        <rect id="path-1" x="0" y="0" width="568" height="360"></rect>
    </defs>
    <g id="Staking" stroke="none" stroke-width="1" fill="none" fill-rule="evenodd">
        <g id="Staking-+-rewards" transform="translate(-825.000000, -120.000000)">
            <g id="hero" transform="translate(48.000000, 117.000000)">
                <g id="staking-hero" transform="translate(777.000000, 3.000000)">
                    <mask id="mask-2" fill="white">
                        <use xlink:href="#path-1"></use>
                    </mask>
                    <g id="clip"></g>
                    <g id="Group-29" mask="url(#mask-2)">
                        <g transform="translate(314.000000, 90.000000)">
                            <path d="M68.3300149,26.8699272 L268.700893,54.7330097 L268.700893,108.470874 C268.700893,138.698422 220.491801,163.203883 161.022321,163.203883 C120.377429,163.203883 84.9956453,151.756292 66.6668094,134.85838 L66.116622,134.34466 L66.367872,122.131238 L14.2713839,136.334951 C6.26762662,128.764722 1.66191794,120.129259 1.50277758,110.953251 L1.4985119,110.461165 L1.4985119,54.7330097 L67.7557292,54.7330097 L68.3300149,26.8699272 Z" id="Path" fill="#23B852"></path>
                            <path d="M268.687512,74.9064272 L268.687512,92.9424272 C268.687512,123.318427 220.334512,147.942427 160.687512,147.942427 C119.921292,147.942427 84.4338905,136.438993 66.0503416,119.458653 L65.4985119,118.942427 L65.4985119,100.906427 C84.0275119,117.622427 120.306512,129.906427 160.687512,129.906427 C219.738042,129.906427 267.719323,105.771465 268.673043,75.8159333 L268.687512,74.9064272 Z M0.498511905,93.5369272 L0.498511905,74.906 L0.498511905,74.8699272 C0.498511905,84.1099272 4.97713302,92.8171257 12.8827256,100.461431 L13.3095119,100.869927 L65.3095119,86.6669272 L65.3095119,105.333927 L13.3095119,119.536927 C5.28186278,111.929769 0.662405718,103.252182 0.502790312,94.0314136 L0.498511905,93.5369272 Z M161.022321,0 C220.491801,0 268.700893,24.5054612 268.700893,54.7330097 C268.700893,84.9605583 220.491801,109.466019 161.022321,109.466019 C120.377429,109.466019 84.9956453,98.0184276 66.6668094,81.1205162 L66.116622,80.6067961 L161.022321,54.7330097 L68.3300149,26.8699272 C87.0840327,10.7853883 121.57308,0 161.022321,0 Z M16.4849762,26.8699272 L109.177283,54.7330097 L14.2715833,80.6067961 C6.12390476,72.9023786 1.49871131,64.0923544 1.49871131,54.7330097 C1.49871131,44.7207853 6.79336579,35.3395244 16.0276603,27.2659318 L16.4849762,26.8699272 Z" id="Shape" fill="#25D25C"></path>
                        </g>
                    </g>
                    <g id="Group-29" mask="url(#mask-2)">
                        <path d="M67.3300149,26.8699272 L267.700893,54.7330097 L267.700893,108.470874 C267.700893,138.698422 219.491801,163.203883 160.022321,163.203883 C119.377429,163.203883 83.9956453,151.756292 65.6668094,134.85838 L65.116622,134.34466 L65.367872,122.131238 L13.2713839,136.334951 C5.26762662,128.764722 0.661917939,120.129259 0.502777578,110.953251 L0.498511905,110.461165 L0.498511905,54.7330097 L66.7557292,54.7330097 L67.3300149,26.8699272 Z" id="Path" fill="#FF00AF"></path>
                        <path d="M268.189,74.0365 L268.189,92.0725 C268.189,122.4485 219.836,147.0725 160.189,147.0725 C119.42278,147.0725 83.9353786,135.569066 65.5518297,118.588726 L65,118.0725 L65,100.0365 C83.529,116.7525 119.808,129.0365 160.189,129.0365 C219.836,129.0365 268.189,104.4115 268.189,74.0365 Z M-4.26325641e-13,74.036 L-5.1159077e-13,74 C-5.1159077e-13,83.24 4.47862111,91.9471985 12.3842137,99.5915035 L12.811,100 L64.811,85.797 L64.811,104.464 L12.811,118.667 C4.78335088,111.059842 0.163893813,102.382255 0.00427840685,93.1614864 L-5.1159077e-13,92.667 L-4.26325641e-13,74.036 Z M160.022321,5.68434189e-14 C219.491801,5.68434189e-14 267.700893,24.5054612 267.700893,54.7330097 C267.700893,84.9605583 219.491801,109.466019 160.022321,109.466019 C119.377429,109.466019 83.9956453,98.0184276 65.6668094,81.1205162 L65.116622,80.6067961 L160.022321,54.7330097 L67.3300149,26.8699272 C86.0840327,10.7853883 120.57308,5.68434189e-14 160.022321,5.68434189e-14 Z M15.4849762,26.8699272 L108.177283,54.7330097 L13.2715833,80.6067961 C5.12390476,72.9023786 0.49871131,64.0923544 0.49871131,54.7330097 C0.49871131,44.7207853 5.79336579,35.3395244 15.0276603,27.2659318 L15.4849762,26.8699272 Z" id="Combined-Shape" fill="#FF82D8"></path>
                    </g>
                    <g id="Group-29" mask="url(#mask-2)">
                        <g transform="translate(255.500000, 293.000000) scale(-1, 1) translate(-255.500000, -293.000000) translate(121.000000, 211.000000)">
                            <path d="M67.3300149,26.8699272 L267.700893,54.7330097 L267.700893,108.470874 C267.700893,138.698422 219.491801,163.203883 160.022321,163.203883 C119.377429,163.203883 83.9956453,151.756292 65.6668094,134.85838 L65.116622,134.34466 L65.367872,122.131238 L13.2713839,136.334951 C5.26762662,128.764722 0.661917939,120.129259 0.502777578,110.953251 L0.498511905,110.461165 L0.498511905,54.7330097 L66.7557292,54.7330097 L67.3300149,26.8699272 Z" id="Path" fill="#3B4EFF"></path>
                            <path d="M268.687512,74.9064272 L268.687512,92.9424272 C268.687512,123.318427 220.334512,147.942427 160.687512,147.942427 C119.921292,147.942427 84.4338905,136.438993 66.0503416,119.458653 L65.4985119,118.942427 L65.4985119,100.906427 C84.0275119,117.622427 120.306512,129.906427 160.687512,129.906427 C220.334512,129.906427 268.687512,105.281427 268.687512,74.9064272 Z M0.498511905,93.5369272 L0.498511905,74.906 L0.498511905,74.8699272 C0.498511905,84.1099272 4.97713302,92.8171257 12.8827256,100.461431 L13.3095119,100.869927 L65.3095119,86.6669272 L65.3095119,105.333927 L13.3095119,119.536927 C5.28186278,111.929769 0.662405718,103.252182 0.502790312,94.0314136 L0.498511905,93.5369272 Z M160.022321,5.68434189e-14 C219.491801,5.68434189e-14 267.700893,24.5054612 267.700893,54.7330097 C267.700893,84.9605583 219.491801,109.466019 160.022321,109.466019 C119.377429,109.466019 83.9956453,98.0184276 65.6668094,81.1205162 L65.116622,80.6067961 L160.022321,54.7330097 L67.3300149,26.8699272 C86.0840327,10.7853883 120.57308,5.68434189e-14 160.022321,5.68434189e-14 Z M15.4849762,26.8699272 L108.177283,54.7330097 L13.2715833,80.6067961 C5.12390476,72.9023786 0.49871131,64.0923544 0.49871131,54.7330097 C0.49871131,44.7207853 5.79336579,35.3395244 15.0276603,27.2659318 L15.4849762,26.8699272 Z" id="Shape" fill="#6877FF"></path>
                        </g>
                    </g>
                </g>
            </g>
        </g>
    </g>
</svg>